<svg width="32" height="33" viewBox="0 0 32 33" fill="none" xmlns="http://www.w3.org/2000/svg">
<path opacity="0.4" d="M16.0001 29.8333C23.3639 29.8333 29.3334 23.8638 29.3334 16.5C29.3334 9.13616 23.3639 3.16663 16.0001 3.16663C8.63628 3.16663 2.66675 9.13616 2.66675 16.5C2.66675 23.8638 8.63628 29.8333 16.0001 29.8333Z" fill="#D40808"/>
<path d="M17.4133 16.5L20.48 13.4333C20.8666 13.0466 20.8666 12.4066 20.48 12.02C20.0933 11.6333 19.4533 11.6333 19.0666 12.02L16 15.0866L12.9333 12.02C12.5466 11.6333 11.9066 11.6333 11.52 12.02C11.1333 12.4066 11.1333 13.0466 11.52 13.4333L14.5866 16.5L11.52 19.5666C11.1333 19.9533 11.1333 20.5933 11.52 20.98C11.72 21.18 11.9733 21.2733 12.2266 21.2733C12.48 21.2733 12.7333 21.18 12.9333 20.98L16 17.9133L19.0666 20.98C19.2666 21.18 19.52 21.2733 19.7733 21.2733C20.0266 21.2733 20.28 21.18 20.48 20.98C20.8666 20.5933 20.8666 19.9533 20.48 19.5666L17.4133 16.5Z" fill="#D40808"/>
</svg>
