<svg width="32" height="33" viewBox="0 0 32 33" fill="none" xmlns="http://www.w3.org/2000/svg">
<path opacity="0.4" d="M29.0133 21.7266L20.48 6.36663C19.3333 4.29996 17.7466 3.16663 16 3.16663C14.2533 3.16663 12.6666 4.29996 11.52 6.36663L2.98664 21.7266C1.90664 23.6866 1.78664 25.5666 2.6533 27.0466C3.51997 28.5266 5.22664 29.34 7.46664 29.34H24.5333C26.7733 29.34 28.48 28.5266 29.3466 27.0466C30.2133 25.5666 30.0933 23.6733 29.0133 21.7266Z" fill="#B07800"/>
<path d="M16 20.1667C15.4533 20.1667 15 19.7133 15 19.1667V12.5C15 11.9533 15.4533 11.5 16 11.5C16.5467 11.5 17 11.9533 17 12.5V19.1667C17 19.7133 16.5467 20.1667 16 20.1667Z" fill="#B07800"/>
<path d="M16.0001 24.5C15.9201 24.5 15.8267 24.4866 15.7334 24.4733C15.6534 24.46 15.5734 24.4333 15.4934 24.3933C15.4134 24.3666 15.3334 24.3266 15.2534 24.2733C15.1867 24.22 15.1201 24.1666 15.0534 24.1133C14.8134 23.86 14.6667 23.5133 14.6667 23.1666C14.6667 22.82 14.8134 22.4733 15.0534 22.22C15.1201 22.1666 15.1867 22.1133 15.2534 22.06C15.3334 22.0066 15.4134 21.9666 15.4934 21.94C15.5734 21.9 15.6534 21.8733 15.7334 21.86C15.9067 21.82 16.0934 21.82 16.2534 21.86C16.3467 21.8733 16.4267 21.9 16.5067 21.94C16.5867 21.9666 16.6667 22.0066 16.7467 22.06C16.8134 22.1133 16.8801 22.1666 16.9467 22.22C17.1867 22.4733 17.3334 22.82 17.3334 23.1666C17.3334 23.5133 17.1867 23.86 16.9467 24.1133C16.8801 24.1666 16.8134 24.22 16.7467 24.2733C16.6667 24.3266 16.5867 24.3666 16.5067 24.3933C16.4267 24.4333 16.3467 24.46 16.2534 24.4733C16.1734 24.4866 16.0801 24.5 16.0001 24.5Z" fill="#B07800"/>
</svg>
