<svg width="32" height="33" viewBox="0 0 32 33" fill="none" xmlns="http://www.w3.org/2000/svg">
<path opacity="0.4" d="M16.0001 29.8333C23.3639 29.8333 29.3334 23.8638 29.3334 16.5C29.3334 9.13616 23.3639 3.16663 16.0001 3.16663C8.63628 3.16663 2.66675 9.13616 2.66675 16.5C2.66675 23.8638 8.63628 29.8333 16.0001 29.8333Z" fill="#419000"/>
<path d="M14.1067 21.2733C13.84 21.2733 13.5867 21.1667 13.4 20.98L9.62667 17.2067C9.24 16.82 9.24 16.18 9.62667 15.7933C10.0133 15.4067 10.6533 15.4067 11.04 15.7933L14.1067 18.86L20.96 12.0067C21.3467 11.62 21.9867 11.62 22.3733 12.0067C22.76 12.3933 22.76 13.0333 22.3733 13.42L14.8133 20.98C14.6267 21.1667 14.3733 21.2733 14.1067 21.2733Z" fill="#419000"/>
</svg>
